<?xml version="1.0" encoding="UTF-8"?>
<svg width="1200pt" height="1200pt" version="1.1" viewBox="0 0 1200 1200" xmlns="http://www.w3.org/2000/svg">
 <path d="m962.28 237.72c-96.766-96.777-225.42-150.06-362.28-150.06s-265.52 53.281-362.28 150.06c-199.77 199.75-199.77 524.8 0 724.57 96.766 96.766 225.42 150.05 362.28 150.05s265.52-53.297 362.28-150.06c199.79-199.76 199.79-524.8 0-724.56zm16.875 580.19h-138.25c15.09-58.98 24.121-124.73 25.77-194.67h169.83c-3.5703 67.547-22.711 134.37-57.344 194.67zm-316.25 214.93c-13.336 1.9062-26.805 3.2383-40.41 3.9297v-173.85h156.7c-28.559 79.695-69.402 140.6-116.29 169.92zm-242.11-169.93h156.7v173.85c-13.59-0.69141-27.074-2.0117-40.41-3.9297-46.891-29.312-87.734-90.215-116.29-169.92zm-257.28-239.66h169.83c1.6484 69.93 10.695 135.69 25.77 194.67h-138.25c-34.648-60.316-53.789-127.14-57.344-194.67zm67.785-258.38h132.48c-17.984 63.703-28.754 135.98-30.465 213.38h-169.91c3.6758-74.551 26.355-148.27 67.891-213.38zm305.79-197.71c13.336-1.9062 26.805-3.2383 40.41-3.9297v156.64h-150.23c28.113-71.25 66.363-125.54 109.82-152.71zm235.64 152.71h-150.23v-156.63c13.59 0.69141 27.074 2.0117 40.41 3.9297 43.453 27.164 81.703 81.449 109.82 152.7zm15.719 45c19.352 63.121 31.336 136.05 33.238 213.38h-199.18v-213.38zm-210.95 0v213.38h-199.18c1.9062-77.324 13.891-150.25 33.238-213.38zm-199.16 258.38h199.16v194.67h-170.95c-16.293-58.621-26.371-124.83-28.203-194.67zm244.16 194.66v-194.66h199.16c-1.8281 69.855-11.926 136.05-28.199 194.67h-170.96zm244.18-239.66c-1.7109-77.387-12.48-149.67-30.465-213.38h132.48c41.52 65.102 64.215 138.82 67.891 213.38zm69.078-258.38h-113.89c-18.375-51-41.762-94.934-68.91-129.75 58.004 21.613 111.23 55.531 156.3 100.61 9.3867 9.3906 18.164 19.156 26.504 29.145zm-488.71-129.75c-27.148 34.816-50.535 78.75-68.91 129.75h-113.89c8.3555-9.9883 17.129-19.754 26.504-29.129 45.074-45.074 98.293-79.008 156.3-100.62zm-196.47 672.78h121.68c19.172 58.32 44.641 108.3 74.789 146.95-58.004-21.613-111.23-55.531-156.3-100.61-14.684-14.684-28.016-30.207-40.168-46.348zm502.38 146.97c30.148-38.656 55.621-88.637 74.789-146.95h121.68c-12.148 16.141-25.484 31.664-40.172 46.352-45.07 45.055-98.289 78.988-156.3 100.6z"/>
</svg>
