<?xml version="1.0" encoding="UTF-8" standalone="no"?>
<!DOCTYPE svg PUBLIC "-//W3C//DTD SVG 1.1//EN" "http://www.w3.org/Graphics/SVG/1.1/DTD/svg11.dtd">
<svg width="100%" height="100%" viewBox="0 0 1200 1200" version="1.1" xmlns="http://www.w3.org/2000/svg" xmlns:xlink="http://www.w3.org/1999/xlink" xml:space="preserve" xmlns:serif="http://www.serif.com/" style="fill-rule:evenodd;clip-rule:evenodd;stroke-linejoin:round;stroke-miterlimit:2;">
    <path d="M962.28,237.72C865.514,140.943 736.86,87.66 600,87.66C463.14,87.66 334.48,140.941 237.72,237.72C37.95,437.47 37.95,762.52 237.72,962.29C334.486,1059.06 463.14,1112.34 600,1112.34C736.86,1112.34 865.52,1059.04 962.28,962.28C1162.07,762.52 1162.07,437.48 962.28,237.72ZM979.161,817.91L840.905,817.91C855.995,758.93 865.026,693.18 866.675,623.24L1036.51,623.24C1032.93,690.787 1013.79,757.61 979.161,817.91ZM662.905,1032.84C649.569,1034.75 636.1,1036.08 622.495,1036.77L622.495,862.92L779.195,862.92C750.636,942.615 709.793,1003.52 662.905,1032.84L662.905,1032.84ZM420.795,862.91L577.495,862.91L577.495,1036.76C563.905,1036.07 550.421,1034.75 537.085,1032.83C490.194,1003.52 449.351,942.615 420.795,862.91L420.795,862.91ZM163.515,623.25L333.345,623.25C334.993,693.18 344.04,758.94 359.115,817.92L220.865,817.92C186.217,757.604 167.076,690.78 163.521,623.25L163.515,623.25ZM231.296,364.87L363.78,364.87C345.796,428.573 335.026,500.85 333.315,578.25L163.405,578.25C167.081,503.699 189.76,429.98 231.296,364.87ZM537.09,167.16C550.426,165.254 563.895,163.922 577.5,163.23L577.5,319.87L427.27,319.87C455.383,248.62 493.633,194.33 537.09,167.16L537.09,167.16ZM772.73,319.87L622.5,319.87L622.5,163.24C636.09,163.931 649.574,165.252 662.91,167.17C706.363,194.334 744.613,248.619 772.73,319.87L772.73,319.87ZM788.449,364.87C807.801,427.991 819.785,500.92 821.687,578.25L622.507,578.25L622.507,364.87L788.449,364.87ZM577.499,364.87L577.499,578.25L378.319,578.25C380.225,500.926 392.21,428 411.557,364.87L577.499,364.87ZM378.339,623.25L577.499,623.25L577.499,817.92L406.549,817.92C390.256,759.299 380.178,693.09 378.346,623.25L378.339,623.25ZM622.499,817.91L622.499,623.25L821.659,623.25C819.831,693.105 809.733,759.3 793.46,817.92L622.5,817.92L622.499,817.91ZM866.679,578.25C864.968,500.863 854.199,428.58 836.214,364.87L968.694,364.87C1010.21,429.972 1032.91,503.69 1036.59,578.25L866.679,578.25ZM935.757,319.87L821.867,319.87C803.492,268.87 780.105,224.936 752.957,190.12C810.961,211.733 864.187,245.651 909.257,290.73C918.644,300.121 927.421,309.886 935.761,319.875L935.757,319.87ZM447.047,190.12C419.899,224.936 396.512,268.87 378.137,319.87L264.247,319.87C272.603,309.882 281.376,300.116 290.751,290.741C335.825,245.667 389.044,211.733 447.051,190.121L447.047,190.12ZM250.577,862.9L372.257,862.9C391.429,921.22 416.898,971.2 447.046,1009.85C389.042,988.237 335.816,954.319 290.746,909.24C276.062,894.556 262.73,879.033 250.578,862.892L250.577,862.9ZM752.957,1009.87C783.105,971.214 808.578,921.233 827.746,862.92L949.426,862.92C937.278,879.061 923.942,894.584 909.254,909.272C864.184,954.327 810.965,988.26 752.954,1009.87L752.957,1009.87Z" style="fill:rgb(253,230,138);fill-rule:nonzero;"/>
</svg>
