<?xml version="1.0" encoding="UTF-8"?>
<svg width="1200pt" height="1200pt" version="1.1" viewBox="0 0 1200 1200" xmlns="http://www.w3.org/2000/svg">
 <path d="m975 900c9.9453 0 19.484-3.9492 26.516-10.984 7.0352-7.0312 10.984-16.57 10.984-26.516v-712.5c0-9.9453-3.9492-19.484-10.984-26.516-7.0312-7.0352-16.57-10.984-26.516-10.984h-787.5c-9.9453 0-19.484 3.9492-26.516 10.984-7.0352 7.0312-10.984 16.57-10.984 26.516v787.5c1.4609 31.207 15.223 60.562 38.273 81.645 23.051 21.086 53.516 32.18 84.727 30.855h702c13.398 0 25.777-7.1484 32.477-18.75 6.6992-11.602 6.6992-25.898 0-37.5-6.6992-11.602-19.078-18.75-32.477-18.75h-37.5v-75zm-375-637.5c0-13.398 7.1484-25.777 18.75-32.477 11.602-6.6992 25.898-6.6992 37.5 0 11.602 6.6992 18.75 19.078 18.75 32.477v161.25c0 10.875 15.75 22.875 37.5 25.125v-186.38c0-13.398 7.1484-25.777 18.75-32.477 11.602-6.6992 25.898-6.6992 37.5 0 11.602 6.6992 18.75 19.078 18.75 32.477v187.5c21.75-2.25 37.5-14.25 37.5-25.125v-162.38c0-13.398 7.1484-25.777 18.75-32.477 11.602-6.6992 25.898-6.6992 37.5 0 11.602 6.6992 18.75 19.078 18.75 32.477v161.25c-2.1992 28.078-15.102 54.242-36.035 73.086-20.938 18.84-48.309 28.922-76.465 28.164v225c0 13.398-7.1484 25.777-18.75 32.477-11.602 6.6992-25.898 6.6992-37.5 0-11.602-6.6992-18.75-19.078-18.75-32.477v-225c-28.035 0.76953-55.305-9.207-76.223-27.895-20.914-18.684-33.895-44.66-36.277-72.605zm-187.5-37.5c88.125 0 150 128.25 150 198-1.3633 31.066-13.238 60.75-33.676 84.184-20.441 23.438-48.23 39.238-78.824 44.816v198c0 13.398-7.1484 25.777-18.75 32.477-11.602 6.6992-25.898 6.6992-37.5 0-11.602-6.6992-18.75-19.078-18.75-32.477v-198c-30.594-5.5781-58.383-21.379-78.824-44.816-20.438-23.434-32.312-53.117-33.676-84.184 0-69.75 61.875-198 150-198zm450 750h-589.5c-11.262 0.99219-22.484-2.3242-31.395-9.2852-8.9102-6.9609-14.844-17.047-16.605-28.215 1.7617-11.168 7.6953-21.254 16.605-28.215 8.9102-6.9609 20.133-10.277 31.395-9.2852h589.5z"/>
</svg>
